<svg xmlns="http://www.w3.org/2000/svg" viewBox="0 0 100 100" fill="none" width="48" height="48">
  <defs>
    <linearGradient id="hvBrandFaviconGrad" x1="0%" y1="0%" x2="100%" y2="100%">
      <stop offset="0%" stopColor="#6345ED" />
      <stop offset="50%" stopColor="#4F46E5" />
      <stop offset="100%" stopColor="#00F2FE" />
    </linearGradient>
    <filter id="hvFaviconGlow" x="-20%" y="-20%" width="140%" height="140%">
      <feDropShadow dx="0" dy="4" stdDeviation="4" floodColor="#6345ED" floodOpacity="0.35" />
    </filter>
  </defs>
  
  <g filter="url(#hvFaviconGlow)">
    {/* Sliced H Path */}
    <path 
      d="M 16 21 A 6 6 0 0 1 28 21 L 28 44 L 44 44 L 44 21 A 6 6 0 0 1 56 21 L 56 36 L 44 64 L 44 56 L 28 56 L 28 79 A 6 6 0 0 1 16 79 Z" 
      fill="url(#hvBrandFaviconGrad)" 
    />
    
    {/* Sliced V Path */}
    <path 
      d="M 61 36 L 49 64 L 65 80 A 6 6 0 0 0 77 80 L 89 30 A 6 6 0 0 0 77 30 L 65 68 Z" 
      fill="url(#hvBrandFaviconGrad)" 
    />
  </g>
</svg>